<svg width="91" height="91" viewBox="0 0 91 91" fill="none" xmlns="http://www.w3.org/2000/svg">
<path d="M0 66.1818C0 58.3822 0 54.4824 2.42303 52.0594C4.84605 49.6364 8.74585 49.6364 16.5455 49.6364H24.8182C32.6178 49.6364 36.5176 49.6364 38.9406 52.0594C41.3636 54.4824 41.3636 58.3822 41.3636 66.1818V74.4545C41.3636 82.2541 41.3636 86.1539 38.9406 88.577C36.5176 91 32.6178 91 24.8182 91H16.5455C8.74585 91 4.84605 91 2.42303 88.577C0 86.1539 0 82.2541 0 74.4545L0 66.1818Z" fill="#5E8DFA"/>
<path d="M0 16.5455C0 8.74585 0 4.84605 2.42303 2.42303C4.84605 0 8.74585 0 16.5455 0L24.8182 0C32.6178 0 36.5176 0 38.9406 2.42303C41.3636 4.84605 41.3636 8.74585 41.3636 16.5455V24.8182C41.3636 32.6178 41.3636 36.5176 38.9406 38.9406C36.5176 41.3636 32.6178 41.3636 24.8182 41.3636H16.5455C8.74585 41.3636 4.84605 41.3636 2.42303 38.9406C0 36.5176 0 32.6178 0 24.8182L0 16.5455Z" fill="#5E8DFA"/>
<path d="M49.6364 66.1818C49.6364 58.3822 49.6364 54.4824 52.0594 52.0594C54.4824 49.6364 58.3822 49.6364 66.1818 49.6364H74.4545C82.2541 49.6364 86.1539 49.6364 88.577 52.0594C91 54.4824 91 58.3822 91 66.1818V74.4545C91 82.2541 91 86.1539 88.577 88.577C86.1539 91 82.2541 91 74.4545 91H66.1818C58.3822 91 54.4824 91 52.0594 88.577C49.6364 86.1539 49.6364 82.2541 49.6364 74.4545V66.1818Z" fill="#5E8DFA"/>
<path d="M49.6364 16.5455C49.6364 8.74585 49.6364 4.84605 52.0594 2.42303C54.4824 0 58.3822 0 66.1818 0L74.4545 0C82.2541 0 86.1539 0 88.577 2.42303C91 4.84605 91 8.74585 91 16.5455V24.8182C91 32.6178 91 36.5176 88.577 38.9406C86.1539 41.3636 82.2541 41.3636 74.4545 41.3636H66.1818C58.3822 41.3636 54.4824 41.3636 52.0594 38.9406C49.6364 36.5176 49.6364 32.6178 49.6364 24.8182V16.5455Z" fill="#5E8DFA"/>
</svg>
