<svg width="49" height="64" viewBox="0 0 49 64" fill="none" xmlns="http://www.w3.org/2000/svg">
<path d="M48.1587 12.8L35.3164 0C35.3164 6.03398 35.3164 9.05098 37.1972 10.9255C39.0779 12.8 42.1048 12.8 48.1587 12.8Z" fill="#F24242"/>
<path d="M0 51.2C0 57.2339 0 60.2509 1.8807 62.1254C3.7614 64 6.78835 64 12.8422 64H35.3162C41.37 64 44.3969 64 46.2777 62.1254C48.1584 60.2509 48.1584 57.2339 48.1584 51.2V12.8C42.1046 12.8 39.0777 12.8 37.1969 10.9255C35.3162 9.05098 35.3162 6.03398 35.3162 0H12.8422C6.78835 0 3.7614 0 1.8807 1.87452C0 3.74902 0 6.76602 0 12.8V51.2Z" fill="#FFC4C4"/>
<path d="M0 44.7998H48.1584V51.1998C48.1584 57.2337 48.1584 60.2507 46.2777 62.1252C44.3969 63.9998 41.37 63.9998 35.3162 63.9998H12.8422C6.78835 63.9998 3.7614 63.9998 1.8807 62.1252C0 60.2507 0 57.2337 0 51.1998V44.7998Z" fill="#F24242"/>
<path d="M29.8577 17.5249H37.563C38.095 17.5249 38.5262 18.2413 38.5262 19.1249V28.7249C38.5262 29.6085 38.095 30.3249 37.563 30.3249H29.8577C29.3257 30.3249 28.8945 29.6085 28.8945 28.7249V19.1249C28.8945 18.2413 29.3257 17.5249 29.8577 17.5249Z" fill="#F24242"/>
<path fill-rule="evenodd" clip-rule="evenodd" d="M8.50781 17.5248C8.50781 16.9062 9.01091 16.4048 9.63151 16.4048H22.4738C23.0944 16.4048 23.5974 16.9062 23.5974 17.5248C23.5974 18.1433 23.0944 18.6448 22.4738 18.6448H9.63151C9.01091 18.6448 8.50781 18.1433 8.50781 17.5248ZM28.2134 17.4172C28.4957 16.9482 29.0423 16.4048 29.858 16.4048H37.5634C38.3792 16.4048 38.9257 16.9482 39.208 17.4172C39.5038 17.9085 39.6503 18.5149 39.6503 19.1248V28.7248C39.6503 29.3347 39.5038 29.9411 39.208 30.4324C38.9257 30.9014 38.3792 31.4448 37.5634 31.4448H29.858C29.0423 31.4448 28.4957 30.9014 28.2134 30.4324C27.9177 29.9411 27.7712 29.3347 27.7712 28.7248V19.1248C27.7712 18.5149 27.9177 17.9085 28.2134 17.4172ZM8.50781 23.9248C8.50781 23.3062 9.01091 22.8048 9.63151 22.8048H22.4738C23.0944 22.8048 23.5974 23.3062 23.5974 23.9248C23.5974 24.5433 23.0944 25.0448 22.4738 25.0448H9.63151C9.01091 25.0448 8.50781 24.5433 8.50781 23.9248ZM8.50781 30.3248C8.50781 29.7062 9.01091 29.2048 9.63151 29.2048H22.4738C23.0944 29.2048 23.5974 29.7062 23.5974 30.3248C23.5974 30.9433 23.0944 31.4448 22.4738 31.4448H9.63151C9.01091 31.4448 8.50781 30.9433 8.50781 30.3248ZM8.50781 36.7249C8.50781 36.1064 9.01091 35.6049 9.63151 35.6049H38.5266C39.1472 35.6049 39.6503 36.1064 39.6503 36.7249C39.6503 37.3435 39.1472 37.8449 38.5266 37.8449H9.63151C9.01091 37.8449 8.50781 37.3435 8.50781 36.7249Z" fill="#F24242"/>
<path d="M15.0141 57.2029C15.0141 57.6438 14.6553 58.0016 14.2126 58.0016C13.77 58.0016 13.4111 57.6438 13.4111 57.2029C13.4111 56.7616 13.77 56.4038 14.2126 56.4038C14.6553 56.4038 15.0141 56.7616 15.0141 57.2029Z" fill="white"/>
<path d="M17.0618 58.0019C16.6399 58.0019 16.2979 57.6607 16.2979 57.2403V51.6457C16.2979 51.1779 16.6785 50.7983 17.1481 50.7983H19.1492C19.6974 50.7983 20.1643 50.9027 20.5501 51.1113C20.936 51.3177 21.23 51.6051 21.4324 51.9731C21.637 52.3388 21.7394 52.7609 21.7394 53.2393C21.7394 53.7177 21.6359 54.1398 21.4288 54.5055C21.2218 54.8713 20.9219 55.1564 20.529 55.3603C20.1385 55.5644 19.6656 55.6662 19.1104 55.6662H17.293V54.4457H18.8633C19.1574 54.4457 19.3997 54.3955 19.5903 54.2947C19.7832 54.1913 19.9267 54.0495 20.0208 53.8691C20.1173 53.686 20.1655 53.4761 20.1655 53.2393C20.1655 53.0003 20.1173 52.7916 20.0208 52.6134C19.9267 52.4329 19.7832 52.2934 19.5903 52.1948C19.3974 52.094 19.1527 52.0435 18.8563 52.0435H17.8259V57.2403C17.8259 57.6607 17.4838 58.0019 17.0618 58.0019Z" fill="white"/>
<path d="M25.2934 58.0019H24.0157C23.3064 58.0019 22.7314 57.4287 22.7314 56.7219V52.0783C22.7314 51.3715 23.3064 50.7983 24.0157 50.7983H25.3146C26.0416 50.7983 26.6673 50.9427 27.192 51.231C27.7166 51.5171 28.1201 51.9286 28.4024 52.4655C28.687 53.0025 28.8294 53.6451 28.8294 54.3929C28.8294 55.1433 28.687 55.7881 28.4024 56.3276C28.1201 56.8668 27.7143 57.2806 27.1849 57.5692C26.6579 57.8575 26.0274 58.0019 25.2934 58.0019ZM24.2595 56.6969H25.2299C25.6816 56.6969 26.0616 56.6172 26.3697 56.4575C26.6803 56.2959 26.9132 56.046 27.0685 55.7084C27.2261 55.3686 27.3049 54.9299 27.3049 54.3929C27.3049 53.8607 27.2261 53.4259 27.0685 53.0883C26.9132 52.7503 26.6815 52.502 26.3733 52.3423C26.0651 52.183 25.6851 52.1033 25.2334 52.1033H24.2595V56.6969Z" fill="white"/>
<path d="M30.7259 58.0019C30.304 58.0019 29.9619 57.6607 29.9619 57.2403V51.8275C29.9619 51.2591 30.4242 50.7983 30.9944 50.7983H34.1172C34.465 50.7983 34.7472 51.0796 34.7472 51.4262C34.7472 51.7731 34.465 52.054 34.1172 52.054H31.4899V53.7705H33.7997C34.1474 53.7705 34.4296 54.0515 34.4296 54.3983C34.4296 54.7452 34.1474 55.0262 33.7997 55.0262H31.4899V57.2403C31.4899 57.6607 31.1479 58.0019 30.7259 58.0019Z" fill="white"/>
</svg>
