<svg width="64" height="188" viewBox="0 0 64 188" fill="none" xmlns="http://www.w3.org/2000/svg">
<rect width="64" height="188" rx="32" fill="url(#paint0_radial_2121_15109)"/>
<path d="M14 102.182C14 99.0963 14 97.5535 14.9586 96.5949C15.9171 95.6364 17.4599 95.6364 20.5455 95.6364H23.8182C26.9037 95.6364 28.4465 95.6364 29.4051 96.5949C30.3636 97.5535 30.3636 99.0963 30.3636 102.182V105.455C30.3636 108.54 30.3636 110.083 29.4051 111.041C28.4465 112 26.9037 112 23.8182 112H20.5455C17.4599 112 15.9171 112 14.9586 111.041C14 110.083 14 108.54 14 105.455V102.182Z" fill="white"/>
<path d="M14 82.5455C14 79.4599 14 77.9171 14.9586 76.9586C15.9171 76 17.4599 76 20.5455 76H23.8182C26.9037 76 28.4465 76 29.4051 76.9586C30.3636 77.9171 30.3636 79.4599 30.3636 82.5455V85.8182C30.3636 88.9037 30.3636 90.4465 29.4051 91.4051C28.4465 92.3636 26.9037 92.3636 23.8182 92.3636H20.5455C17.4599 92.3636 15.9171 92.3636 14.9586 91.4051C14 90.4465 14 88.9037 14 85.8182L14 82.5455Z" fill="white"/>
<path d="M33.6364 102.182C33.6364 99.0963 33.6364 97.5535 34.5949 96.5949C35.5535 95.6364 37.0963 95.6364 40.1818 95.6364H43.4545C46.5401 95.6364 48.0829 95.6364 49.0414 96.5949C50 97.5535 50 99.0963 50 102.182V105.455C50 108.54 50 110.083 49.0414 111.041C48.0829 112 46.5401 112 43.4545 112H40.1818C37.0963 112 35.5535 112 34.5949 111.041C33.6364 110.083 33.6364 108.54 33.6364 105.455V102.182Z" fill="white"/>
<path d="M33.6364 82.5455C33.6364 79.4599 33.6364 77.9171 34.5949 76.9586C35.5535 76 37.0963 76 40.1818 76H43.4545C46.5401 76 48.0829 76 49.0414 76.9586C50 77.9171 50 79.4599 50 82.5455V85.8182C50 88.9037 50 90.4465 49.0414 91.4051C48.0829 92.3636 46.5401 92.3636 43.4545 92.3636H40.1818C37.0963 92.3636 35.5535 92.3636 34.5949 91.4051C33.6364 90.4465 33.6364 88.9037 33.6364 85.8182V82.5455Z" fill="white"/>
<path fill-rule="evenodd" clip-rule="evenodd" d="M33.8456 161.254C32.8263 162.249 31.1737 162.249 30.1544 161.254L18.7645 150.146C17.7452 149.152 17.7452 147.54 18.7645 146.546C19.7837 145.552 21.4363 145.552 22.4556 146.546L29.39 153.309L29.39 136.545C29.39 135.14 30.5585 134 32 134C33.4415 134 34.61 135.14 34.61 136.545L34.61 153.309L41.5444 146.546C42.5637 145.552 44.2163 145.552 45.2355 146.546C46.2548 147.54 46.2548 149.152 45.2355 150.146L33.8456 161.254Z" fill="white"/>
<path fill-rule="evenodd" clip-rule="evenodd" d="M30.1544 26.7455C31.1737 25.7515 32.8263 25.7515 33.8456 26.7455L45.2355 37.8538C46.2548 38.8479 46.2548 40.4596 45.2355 41.4536C44.2163 42.4477 42.5637 42.4477 41.5444 41.4536L34.61 34.6907V51.4545C34.61 52.8604 33.4415 54 32 54C30.5585 54 29.39 52.8604 29.39 51.4545L29.39 34.6907L22.4556 41.4536C21.4363 42.4477 19.7837 42.4477 18.7645 41.4536C17.7452 40.4596 17.7452 38.8479 18.7645 37.8538L30.1544 26.7455Z" fill="white"/>
<defs>
<radialGradient id="paint0_radial_2121_15109" cx="0" cy="0" r="1" gradientUnits="userSpaceOnUse" gradientTransform="rotate(71.1741) scale(198.309 153.086)">
<stop stop-color="#9891FC"/>
<stop offset="0.5" stop-color="#5686F9"/>
<stop offset="1" stop-color="#73A0FB"/>
</radialGradient>
</defs>
</svg>
