<?xml version="1.0" encoding="utf-8"?><svg viewBox="0 0 188 188" xmlns="http://www.w3.org/2000/svg" xmlns:xlink="http://www.w3.org/1999/xlink"><style>:root>svg{display:none}:root>svg:target{display:block}</style><svg fill="none" viewBox="0 0 91 91" id="big-main-icon" xmlns="http://www.w3.org/2000/svg"><path d="M0 66.182c0-7.8 0-11.7 2.423-14.123s6.323-2.423 14.122-2.423h8.273c7.8 0 11.7 0 14.123 2.423s2.423 6.323 2.423 14.123v8.272c0 7.8 0 11.7-2.423 14.123S32.618 91 24.818 91h-8.273c-7.8 0-11.699 0-14.122-2.423S0 82.254 0 74.454v-8.272zM0 16.546c0-7.8 0-11.7 2.423-14.123S8.746 0 16.545 0h8.273c7.8 0 11.7 0 14.123 2.423s2.423 6.323 2.423 14.122v8.273c0 7.8 0 11.7-2.423 14.123s-6.323 2.423-14.123 2.423h-8.273c-7.8 0-11.699 0-14.122-2.423S0 32.618 0 24.818v-8.273zM49.636 66.182c0-7.8 0-11.7 2.423-14.123s6.323-2.423 14.123-2.423h8.272c7.8 0 11.7 0 14.123 2.423S91 58.382 91 66.182v8.272c0 7.8 0 11.7-2.423 14.123S82.254 91 74.454 91h-8.272c-7.8 0-11.7 0-14.123-2.423s-2.423-6.323-2.423-14.123v-8.272zM49.636 16.546c0-7.8 0-11.7 2.423-14.123S58.382 0 66.182 0h8.272c7.8 0 11.7 0 14.123 2.423S91 8.746 91 16.545v8.273c0 7.8 0 11.7-2.423 14.123s-6.323 2.423-14.123 2.423h-8.272c-7.8 0-11.7 0-14.123-2.423s-2.423-6.323-2.423-14.123v-8.273z" fill="#5E8DFA"/></svg><svg fill="none" viewBox="0 0 188 64" id="nav" xmlns="http://www.w3.org/2000/svg"><rect x="62" y="64" width="64" height="64" rx="18" transform="rotate(-90 62 64)" fill="url(#bpaint0_radial_1497_16385)"/><g clip-path="url(#bclip0_1497_16385)" fill="#fff"><path d="M110 38c-1.886 1.886-2.828 2.828-4 2.828-1.172 0-2.114-.942-4-2.828l-2-2c-1.886-1.886-2.828-2.828-2.828-4 0-1.172.942-2.114 2.828-4l2-2c1.886-1.886 2.828-2.828 4-2.828 1.172 0 2.114.942 4 2.828l2 2c1.886 1.886 2.828 2.828 2.828 4 0 1.172-.942 2.114-2.828 4l-2 2zM98 50c-1.886 1.886-2.828 2.828-4 2.828-1.172 0-2.114-.942-4-2.828l-2-2c-1.886-1.886-2.829-2.828-2.829-4 0-1.172.943-2.114 2.829-4l2-2c1.886-1.886 2.828-2.828 4-2.828 1.172 0 2.114.942 4 2.828l2 2c1.886 1.886 2.828 2.828 2.828 4 0 1.172-.942 2.114-2.828 4l-2 2zM98 26c-1.886 1.886-2.828 2.828-4 2.828-1.172 0-2.114-.942-4-2.828l-2-2c-1.886-1.886-2.829-2.828-2.829-4 0-1.172.943-2.114 2.829-4l2-2c1.886-1.886 2.828-2.829 4-2.829 1.172 0 2.114.943 4 2.829l2 2c1.886 1.886 2.828 2.828 2.828 4 0 1.172-.942 2.114-2.828 4l-2 2zM86 38c-1.886 1.886-2.829 2.828-4 2.828-1.172 0-2.114-.942-4-2.828l-2-2c-1.886-1.886-2.829-2.828-2.829-4 0-1.172.943-2.114 2.829-4l2-2c1.886-1.886 2.828-2.828 4-2.828 1.171 0 2.114.942 4 2.828l2 2c1.886 1.886 2.828 2.828 2.828 4 0 1.172-.942 2.114-2.828 4l-2 2z"/></g><defs><radialGradient id="bpaint0_radial_1497_16385" cx="0" cy="0" r="1" gradientUnits="userSpaceOnUse" gradientTransform="matrix(-64.00002 -64.00002 76.99756 -76.99756 126 128)"><stop stop-color="#42D987"/><stop offset=".698" stop-color="#78CD59"/><stop offset="1" stop-color="#7BC952"/></radialGradient><clipPath id="bclip0_1497_16385"><path fill="#fff" transform="rotate(-90 63 -9)" d="M0 0h44v44H0z"/></clipPath></defs></svg><svg fill="none" viewBox="0 0 48 64" id="no-pdf-file" xmlns="http://www.w3.org/2000/svg"><path d="M48 12.8L35.2 0c0 6.034 0 9.051 1.874 10.925C38.95 12.8 41.967 12.8 48 12.8z" fill="#8692A4"/><path d="M0 51.2c0 6.034 0 9.051 1.875 10.925C3.749 64 6.766 64 12.8 64h22.4c6.034 0 9.051 0 10.925-1.874C48 60.25 48 57.233 48 51.2V12.8c-6.034 0-9.051 0-10.925-1.875C35.2 9.051 35.2 6.034 35.2 0H12.8C6.766 0 3.749 0 1.875 1.875 0 3.749 0 6.766 0 12.8v38.4z" fill="#DDE7FE"/><path d="M0 51.2c0-3.017 0-4.526.937-5.463.938-.937 2.446-.937 5.463-.937h35.2c3.017 0 4.526 0 5.463.937.937.938.937 2.446.937 5.463 0 6.034 0 9.051-1.874 10.925C44.25 64 41.233 64 35.2 64H12.8c-6.034 0-9.051 0-10.925-1.874C0 60.25 0 57.233 0 51.2z" fill="#8692A4"/><path d="M19.785 55.808c-.36 0-.658-.295-.62-.653.017-.166.041-.313.072-.42.07-.237.174-.429.308-.575a2.36 2.36 0 01.487-.397c.141-.091.268-.186.38-.284.112-.099.2-.207.267-.326a.828.828 0 00.1-.404.757.757 0 00-.114-.415.753.753 0 00-.305-.274.908.908 0 00-.418-.095.93.93 0 00-.42.099.805.805 0 00-.326.288c-.155.229-.356.469-.633.469h-.181c-.395 0-.731-.334-.604-.708.053-.155.124-.296.212-.422.208-.3.483-.522.826-.668.342-.149.72-.223 1.133-.223.455 0 .857.075 1.206.226.35.148.623.364.822.647.199.284.298.625.298 1.025 0 .267-.044.504-.133.712a1.737 1.737 0 01-.367.548c-.157.158-.344.3-.558.428a2.26 2.26 0 00-.445.336 1.139 1.139 0 00-.271.447c-.097.344-.36.639-.716.639zM19.809 58a.804.804 0 01-.586-.24.788.788 0 01-.236-.582.773.773 0 01.236-.575.804.804 0 01.586-.24c.217 0 .408.08.572.24a.786.786 0 01.13.99.886.886 0 01-.298.297.778.778 0 01-.404.11zM25.21 55.808c-.36 0-.658-.295-.62-.653.018-.166.042-.313.073-.42.07-.237.173-.429.308-.575.135-.146.297-.278.486-.397.142-.091.269-.186.38-.284.112-.099.201-.207.268-.326a.828.828 0 00.099-.404.757.757 0 00-.113-.415.753.753 0 00-.305-.274.908.908 0 00-.418-.095.93.93 0 00-.421.099.805.805 0 00-.325.288c-.155.229-.356.469-.633.469h-.182c-.395 0-.73-.334-.603-.708.053-.155.123-.296.212-.422.208-.3.483-.522.825-.668.343-.149.72-.223 1.134-.223.454 0 .856.075 1.206.226.35.148.623.364.822.647.199.284.298.625.298 1.025 0 .267-.045.504-.134.712a1.737 1.737 0 01-.366.548c-.158.158-.344.3-.559.428-.18.108-.328.22-.445.336a1.14 1.14 0 00-.27.447c-.098.344-.36.639-.716.639zM25.236 58a.804.804 0 01-.586-.24.788.788 0 01-.236-.582.773.773 0 01.236-.575.804.804 0 01.586-.24c.217 0 .407.08.572.24a.786.786 0 01.13.99.886.886 0 01-.298.297.778.778 0 01-.404.11zM30.636 55.808c-.36 0-.658-.295-.62-.653.017-.166.042-.313.072-.42.071-.237.174-.429.309-.575.134-.146.296-.278.486-.397.142-.091.268-.186.38-.284.112-.099.201-.207.267-.326a.828.828 0 00.1-.404.757.757 0 00-.113-.415.753.753 0 00-.305-.274.908.908 0 00-.418-.095.93.93 0 00-.421.099.805.805 0 00-.326.288c-.154.229-.356.469-.632.469h-.182c-.395 0-.73-.334-.603-.708.052-.155.123-.296.212-.422.207-.3.483-.522.825-.668.342-.149.72-.223 1.134-.223.454 0 .856.075 1.206.226.349.148.623.364.822.647.198.284.298.625.298 1.025 0 .267-.045.504-.134.712a1.737 1.737 0 01-.367.548c-.157.158-.343.3-.558.428-.18.108-.329.22-.445.336a1.141 1.141 0 00-.27.447c-.098.344-.36.639-.717.639zM30.66 58a.804.804 0 01-.585-.24.788.788 0 01-.237-.582.772.772 0 01.237-.575.804.804 0 01.585-.24c.217 0 .408.08.572.24a.786.786 0 01.13.99.886.886 0 01-.297.297.778.778 0 01-.405.11zM16.471 57.201a.799.799 0 11-1.598 0 .799.799 0 011.598 0z" fill="#fff"/><path d="M25.12 35.618a1.12 1.12 0 11-2.24 0 1.12 1.12 0 012.24 0z" fill="#8692A4"/><path fill-rule="evenodd" clip-rule="evenodd" d="M21.915 17.079a5.447 5.447 0 015.11 9.56c-.547.367-1.047.765-1.402 1.19-.35.422-.503.8-.503 1.157v1.779a1.12 1.12 0 01-2.24 0v-1.779c0-1.05.464-1.92 1.022-2.59.555-.666 1.257-1.203 1.88-1.619a3.206 3.206 0 10-4.99-2.666 1.12 1.12 0 11-2.24 0 5.447 5.447 0 013.363-5.032zM34.542 23.757a3.732 3.732 0 01.687 7.398c-.374.072-.697.167-.94.292-.236.123-.316.232-.346.304l-.416.99a1.12 1.12 0 01-2.065-.87l.416-.989c.3-.71.856-1.152 1.381-1.424.52-.269 1.084-.413 1.545-.502a1.493 1.493 0 10-1.659-2.045 1.12 1.12 0 11-2.064-.869 3.733 3.733 0 013.461-2.285z" fill="#8692A4"/><path d="M32.558 35.993a1.12 1.12 0 11-2.064-.87 1.12 1.12 0 012.064.87z" fill="#8692A4"/><path fill-rule="evenodd" clip-rule="evenodd" d="M10.825 25.072a3.733 3.733 0 015.769 4.68c-.21.318-.368.615-.448.876-.078.255-.055.388-.025.46l.417.99a1.12 1.12 0 01-2.065.869l-.416-.99c-.3-.71-.226-1.417-.053-1.983.17-.559.462-1.064.72-1.456a1.493 1.493 0 10-2.621-.243 1.12 1.12 0 11-2.065.869 3.732 3.732 0 01.787-4.072z" fill="#8692A4"/><path d="M18.186 35.044a1.12 1.12 0 11-2.065.869 1.12 1.12 0 012.065-.869z" fill="#8692A4"/></svg><svg fill="none" viewBox="0 0 49 64" id="pdf-file" xmlns="http://www.w3.org/2000/svg"><path d="M48.159 12.8L35.316 0c0 6.034 0 9.051 1.881 10.925C39.077 12.8 42.105 12.8 48.16 12.8z" fill="#F24242"/><path d="M0 51.2c0 6.034 0 9.05 1.88 10.925C3.762 64 6.789 64 12.843 64h22.474c6.054 0 9.08 0 10.962-1.875 1.88-1.874 1.88-4.891 1.88-10.925V12.8c-6.053 0-9.08 0-10.961-1.875-1.88-1.874-1.88-4.891-1.88-10.925H12.841C6.788 0 3.762 0 1.881 1.875 0 3.749 0 6.766 0 12.8v38.4z" fill="#FFC4C4"/><path d="M0 44.8h48.158v6.4c0 6.034 0 9.05-1.88 10.925C44.397 64 41.37 64 35.316 64H12.842c-6.054 0-9.08 0-10.961-1.875C0 60.251 0 57.234 0 51.2v-6.4zM29.858 17.525h7.705c.532 0 .963.716.963 1.6v9.6c0 .883-.431 1.6-.963 1.6h-7.705c-.532 0-.963-.716-.963-1.6v-9.6c0-.884.43-1.6.963-1.6z" fill="#F24242"/><path fill-rule="evenodd" clip-rule="evenodd" d="M8.508 17.525c0-.619.503-1.12 1.124-1.12h12.842c.62 0 1.123.501 1.123 1.12 0 .618-.503 1.12-1.123 1.12H9.632c-.621 0-1.124-.502-1.124-1.12zm19.705-.108c.283-.469.83-1.012 1.645-1.012h7.705c.816 0 1.363.543 1.645 1.012.296.491.442 1.098.442 1.708v9.6c0 .61-.146 1.216-.442 1.707-.282.47-.829 1.013-1.645 1.013h-7.705c-.816 0-1.362-.544-1.645-1.013-.295-.49-.442-1.097-.442-1.707v-9.6c0-.61.147-1.216.442-1.708zM8.508 23.925c0-.619.503-1.12 1.124-1.12h12.842c.62 0 1.123.501 1.123 1.12 0 .618-.503 1.12-1.123 1.12H9.632c-.621 0-1.124-.502-1.124-1.12zm0 6.4c0-.619.503-1.12 1.124-1.12h12.842c.62 0 1.123.501 1.123 1.12 0 .618-.503 1.12-1.123 1.12H9.632c-.621 0-1.124-.502-1.124-1.12zm0 6.4c0-.619.503-1.12 1.124-1.12h28.895c.62 0 1.123.501 1.123 1.12 0 .618-.503 1.12-1.123 1.12H9.632c-.621 0-1.124-.502-1.124-1.12z" fill="#F24242"/><path d="M15.014 57.203a.8.8 0 01-.801.799.8.8 0 01-.802-.8.8.8 0 01.802-.798.8.8 0 01.801.799zM17.062 58.002a.763.763 0 01-.764-.762v-5.594c0-.468.38-.848.85-.848h2.001c.548 0 1.015.105 1.401.313.386.207.68.494.882.862.205.366.307.788.307 1.266 0 .479-.103.9-.31 1.267-.207.365-.507.65-.9.854-.39.204-.863.306-1.419.306h-1.817v-1.22h1.57c.294 0 .537-.05.727-.151.193-.104.337-.245.43-.426a1.33 1.33 0 00.146-.63c0-.239-.049-.447-.145-.626a.966.966 0 00-.43-.418c-.194-.101-.438-.151-.735-.151h-1.03v5.196c0 .42-.342.762-.764.762zM25.293 58.002h-1.277c-.71 0-1.285-.573-1.285-1.28v-4.644c0-.707.575-1.28 1.285-1.28h1.299c.727 0 1.352.145 1.877.433.525.286.928.698 1.21 1.234.285.537.427 1.18.427 1.928 0 .75-.142 1.395-.427 1.935a2.93 2.93 0 01-1.217 1.241c-.527.288-1.158.433-1.892.433zm-1.034-1.305h.97c.453 0 .833-.08 1.14-.24a1.54 1.54 0 00.7-.749c.157-.34.236-.778.236-1.315 0-.532-.079-.967-.236-1.305a1.528 1.528 0 00-.696-.746c-.308-.159-.688-.239-1.14-.239h-.974v4.594zM30.726 58.002a.763.763 0 01-.764-.762v-5.413c0-.568.462-1.029 1.032-1.029h3.123a.629.629 0 110 1.256H31.49v1.716h2.31a.629.629 0 110 1.256h-2.31v2.214c0 .42-.342.762-.764.762z" fill="#fff"/></svg><svg fill="none" viewBox="0 0 64 64" id="preview-control-button" xmlns="http://www.w3.org/2000/svg"><rect y="64" width="64" height="64" rx="18" transform="rotate(-90 0 64)" fill="url(#epaint0_radial_104_6)"/><path fill-rule="evenodd" clip-rule="evenodd" d="M30.154 18.745a2.657 2.657 0 013.692 0l11.39 11.109a2.501 2.501 0 010 3.6 2.657 2.657 0 01-3.692 0L34.61 26.69v16.764C34.61 44.86 33.441 46 32 46c-1.442 0-2.61-1.14-2.61-2.545V26.69l-6.934 6.763a2.657 2.657 0 01-3.691 0 2.501 2.501 0 010-3.6l11.39-11.108z" fill="#fff"/><defs><radialGradient id="epaint0_radial_104_6" cx="0" cy="0" r="1" gradientUnits="userSpaceOnUse" gradientTransform="matrix(63.99314 63.89783 -80.74862 80.86907 0 64)"><stop stop-color="#9891FC"/><stop offset=".5" stop-color="#5686F9"/><stop offset="1" stop-color="#73A0FB"/></radialGradient></defs></svg><svg fill="none" viewBox="0 0 64 64" id="preview-nav-button" xmlns="http://www.w3.org/2000/svg"><rect y="64" width="64" height="64" rx="18" transform="rotate(-90 0 64)" fill="url(#fpaint0_radial_2122_16556)"/><g clip-path="url(#fclip0_2122_16556)" fill="#fff"><path d="M48 38c-1.886 1.886-2.828 2.828-4 2.828-1.172 0-2.114-.942-4-2.828l-2-2c-1.886-1.886-2.828-2.828-2.828-4 0-1.172.942-2.114 2.828-4l2-2c1.886-1.886 2.828-2.828 4-2.828 1.172 0 2.114.942 4 2.828l2 2c1.886 1.886 2.828 2.828 2.828 4 0 1.172-.942 2.114-2.828 4l-2 2zM36 50c-1.886 1.886-2.828 2.828-4 2.828-1.172 0-2.114-.942-4-2.828l-2-2c-1.886-1.886-2.828-2.828-2.828-4 0-1.172.942-2.114 2.828-4l2-2c1.886-1.886 2.828-2.828 4-2.828 1.172 0 2.114.942 4 2.828l2 2c1.886 1.886 2.828 2.828 2.828 4 0 1.172-.942 2.114-2.828 4l-2 2zM36 26c-1.886 1.886-2.828 2.828-4 2.828-1.172 0-2.114-.942-4-2.828l-2-2c-1.886-1.886-2.828-2.828-2.828-4 0-1.172.942-2.114 2.828-4l2-2c1.886-1.886 2.828-2.829 4-2.829 1.172 0 2.114.943 4 2.829l2 2c1.886 1.886 2.828 2.828 2.828 4 0 1.172-.942 2.114-2.828 4l-2 2zM24 38c-1.886 1.886-2.828 2.828-4 2.828-1.172 0-2.114-.942-4-2.828l-2-2c-1.886-1.886-2.829-2.828-2.829-4 0-1.172.943-2.114 2.829-4l2-2c1.886-1.886 2.828-2.828 4-2.828 1.172 0 2.114.942 4 2.828l2 2c1.886 1.886 2.828 2.828 2.828 4 0 1.172-.942 2.114-2.828 4l-2 2z"/></g><defs><radialGradient id="fpaint0_radial_2122_16556" cx="0" cy="0" r="1" gradientUnits="userSpaceOnUse" gradientTransform="matrix(63.99314 63.89783 -80.74862 80.86907 0 64)"><stop stop-color="#9891FC"/><stop offset=".5" stop-color="#5686F9"/><stop offset="1" stop-color="#73A0FB"/></radialGradient><clipPath id="fclip0_2122_16556"><path fill="#fff" transform="rotate(-90 32 22)" d="M0 0h44v44H0z"/></clipPath></defs></svg><svg fill="none" viewBox="0 0 188 64" id="preview-nav-button-opened" xmlns="http://www.w3.org/2000/svg"><rect y="64" width="64" height="188" rx="32" transform="rotate(-90 0 64)" fill="url(#gpaint0_radial_2121_15088)"/><path d="M102.182 50c-3.086 0-4.629 0-5.587-.959-.959-.958-.959-2.5-.959-5.586v-3.273c0-3.086 0-4.629.959-5.587.959-.959 2.501-.959 5.587-.959h3.273c3.085 0 4.628 0 5.586.959.959.959.959 2.501.959 5.587v3.273c0 3.085 0 4.628-.959 5.586-.958.959-2.501.959-5.586.959h-3.273zM82.546 50c-3.086 0-4.629 0-5.587-.959-.959-.958-.959-2.5-.959-5.586v-3.273c0-3.086 0-4.629.959-5.587.958-.959 2.5-.959 5.587-.959h3.272c3.086 0 4.629 0 5.587.959.959.959.959 2.501.959 5.587v3.273c0 3.085 0 4.628-.959 5.586-.959.959-2.501.959-5.587.959h-3.272zM102.182 30.364c-3.086 0-4.629 0-5.587-.959-.959-.959-.959-2.501-.959-5.587v-3.273c0-3.085 0-4.628.959-5.586.959-.959 2.501-.959 5.587-.959h3.273c3.085 0 4.628 0 5.586.959.959.958.959 2.5.959 5.587v3.272c0 3.086 0 4.628-.959 5.587-.958.959-2.501.959-5.586.959h-3.273zM82.546 30.364c-3.086 0-4.629 0-5.587-.959C76 28.446 76 26.904 76 23.818v-3.273c0-3.085 0-4.628.959-5.586.958-.959 2.5-.959 5.587-.959h3.272c3.086 0 4.629 0 5.587.959.959.958.959 2.5.959 5.587v3.272c0 3.086 0 4.628-.959 5.587-.959.959-2.501.959-5.587.959h-3.272z" fill="#fff"/><path fill-rule="evenodd" clip-rule="evenodd" d="M161.254 30.154a2.655 2.655 0 010 3.692l-11.108 11.39a2.501 2.501 0 01-3.6 0 2.657 2.657 0 010-3.692l6.763-6.934h-16.764C135.14 34.61 134 33.441 134 32c0-1.442 1.14-2.61 2.545-2.61h16.764l-6.763-6.934a2.657 2.657 0 010-3.691 2.501 2.501 0 013.6 0l11.108 11.39zM26.745 33.846a2.657 2.657 0 010-3.692l11.109-11.39a2.501 2.501 0 013.6 0 2.657 2.657 0 010 3.692L34.69 29.39h16.764C52.86 29.39 54 30.558 54 32c0 1.441-1.14 2.61-2.545 2.61H34.69l6.763 6.934a2.657 2.657 0 010 3.692 2.501 2.501 0 01-3.6 0l-11.108-11.39z" fill="#fff"/><defs><radialGradient id="gpaint0_radial_2121_15088" cx="0" cy="0" r="1" gradientUnits="userSpaceOnUse" gradientTransform="rotate(71.174 -44.718 32) scale(198.309 153.086)"><stop stop-color="#9891FC"/><stop offset=".5" stop-color="#5686F9"/><stop offset="1" stop-color="#73A0FB"/></radialGradient></defs></svg><svg fill="none" viewBox="0 0 64 188" id="preview-nav-button-opened-rotated" xmlns="http://www.w3.org/2000/svg"><rect width="64" height="188" rx="32" fill="url(#hpaint0_radial_2121_15109)"/><path d="M14 102.182c0-3.086 0-4.629.959-5.587.958-.959 2.5-.959 5.587-.959h3.272c3.086 0 4.628 0 5.587.959.959.959.959 2.501.959 5.587v3.273c0 3.085 0 4.628-.959 5.586-.959.959-2.501.959-5.587.959h-3.273c-3.085 0-4.628 0-5.586-.959-.959-.958-.959-2.501-.959-5.586v-3.273zM14 82.546c0-3.086 0-4.629.959-5.587.958-.959 2.5-.959 5.587-.959h3.272c3.086 0 4.628 0 5.587.959.959.958.959 2.5.959 5.587v3.272c0 3.086 0 4.629-.959 5.587-.959.959-2.501.959-5.587.959h-3.273c-3.085 0-4.628 0-5.586-.959C14 90.446 14 88.904 14 85.818v-3.272zM33.636 102.182c0-3.086 0-4.629.959-5.587.959-.959 2.501-.959 5.587-.959h3.273c3.085 0 4.628 0 5.586.959.959.959.959 2.501.959 5.587v3.273c0 3.085 0 4.628-.959 5.586-.958.959-2.5.959-5.586.959h-3.273c-3.086 0-4.629 0-5.587-.959-.959-.958-.959-2.501-.959-5.586v-3.273zM33.636 82.546c0-3.086 0-4.629.959-5.587C35.554 76 37.096 76 40.182 76h3.273c3.085 0 4.628 0 5.586.959.959.958.959 2.5.959 5.587v3.272c0 3.086 0 4.629-.959 5.587-.958.959-2.5.959-5.586.959h-3.273c-3.086 0-4.629 0-5.587-.959-.959-.959-.959-2.501-.959-5.587v-3.272z" fill="#fff"/><path fill-rule="evenodd" clip-rule="evenodd" d="M33.846 161.254a2.655 2.655 0 01-3.692 0l-11.39-11.108a2.501 2.501 0 010-3.6 2.657 2.657 0 013.692 0l6.934 6.763v-16.764c0-1.405 1.168-2.545 2.61-2.545 1.441 0 2.61 1.14 2.61 2.545v16.764l6.934-6.763a2.657 2.657 0 013.692 0 2.501 2.501 0 010 3.6l-11.39 11.108zM30.154 26.745a2.657 2.657 0 013.692 0l11.39 11.109a2.501 2.501 0 010 3.6 2.657 2.657 0 01-3.692 0L34.61 34.69v16.764C34.61 52.86 33.441 54 32 54c-1.442 0-2.61-1.14-2.61-2.545V34.69l-6.934 6.763a2.657 2.657 0 01-3.691 0 2.501 2.501 0 010-3.6l11.39-11.108z" fill="#fff"/><defs><radialGradient id="hpaint0_radial_2121_15109" cx="0" cy="0" r="1" gradientUnits="userSpaceOnUse" gradientTransform="rotate(71.174) scale(198.309 153.086)"><stop stop-color="#9891FC"/><stop offset=".5" stop-color="#5686F9"/><stop offset="1" stop-color="#73A0FB"/></radialGradient></defs></svg></svg>