<svg width="188" height="64" viewBox="0 0 188 64" fill="none" xmlns="http://www.w3.org/2000/svg">
<rect x="62" y="64" width="64" height="64" rx="18" transform="rotate(-90 62 64)" fill="url(#paint0_radial_1497_16385)"/>
<g clip-path="url(#clip0_1497_16385)">
<path d="M110 38C108.114 39.8856 107.172 40.8284 106 40.8284C104.828 40.8284 103.886 39.8856 102 38L100 35.9999C98.1144 34.1143 97.1716 33.1715 97.1716 31.9999C97.1716 30.8284 98.1144 29.8855 100 27.9999L102 25.9999C103.886 24.1143 104.828 23.1715 106 23.1715C107.172 23.1715 108.114 24.1143 110 25.9999L112 27.9999C113.886 29.8855 114.828 30.8284 114.828 31.9999C114.828 33.1715 113.886 34.1143 112 35.9999L110 38Z" fill="white"/>
<path d="M98 50C96.1144 51.8856 95.1716 52.8284 94 52.8284C92.8284 52.8284 91.8856 51.8856 90 50L88 48C86.1144 46.1144 85.1715 45.1715 85.1715 44C85.1715 42.8284 86.1144 41.8856 88 40L90 38C91.8856 36.1143 92.8284 35.1715 94 35.1715C95.1716 35.1715 96.1144 36.1143 98 38L100 40C101.886 41.8856 102.828 42.8284 102.828 44C102.828 45.1715 101.886 46.1144 100 48L98 50Z" fill="white"/>
<path d="M98 25.9999C96.1144 27.8855 95.1716 28.8284 94 28.8284C92.8284 28.8284 91.8856 27.8855 90 25.9999L88 23.9999C86.1144 22.1143 85.1715 21.1715 85.1715 19.9999C85.1715 18.8283 86.1144 17.8855 88 15.9999L90 13.9999C91.8856 12.1143 92.8284 11.1714 94 11.1714C95.1716 11.1714 96.1144 12.1143 98 13.9999L100 15.9999C101.886 17.8855 102.828 18.8283 102.828 19.9999C102.828 21.1715 101.886 22.1143 100 23.9999L98 25.9999Z" fill="white"/>
<path d="M86 38C84.1144 39.8856 83.1715 40.8284 82 40.8284C80.8284 40.8284 79.8856 39.8856 78 38L75.9999 35.9999C74.1143 34.1143 73.1715 33.1715 73.1715 31.9999C73.1715 30.8284 74.1143 29.8855 75.9999 27.9999L77.9999 25.9999C79.8856 24.1143 80.8284 23.1715 82 23.1715C83.1715 23.1715 84.1144 24.1143 86 25.9999L88 27.9999C89.8856 29.8855 90.8284 30.8284 90.8284 31.9999C90.8284 33.1715 89.8856 34.1143 88 35.9999L86 38Z" fill="white"/>
</g>
<defs>
<radialGradient id="paint0_radial_1497_16385" cx="0" cy="0" r="1" gradientUnits="userSpaceOnUse" gradientTransform="translate(126 128) rotate(-135) scale(90.5097 108.891)">
<stop stop-color="#42D987"/>
<stop offset="0.698499" stop-color="#78CD59"/>
<stop offset="1" stop-color="#7BC952"/>
</radialGradient>
<clipPath id="clip0_1497_16385">
<rect width="44" height="44" fill="white" transform="translate(72 54) rotate(-90)"/>
</clipPath>
</defs>
</svg>