<svg width="48" height="64" viewBox="0 0 48 64" fill="none" xmlns="http://www.w3.org/2000/svg">
<path d="M48 12.8L35.2 0C35.2 6.03398 35.2 9.05097 37.0745 10.9255C38.949 12.8 41.966 12.8 48 12.8Z" fill="#8692A4"/>
<path d="M0 51.2C0 57.234 0 60.251 1.87452 62.1255C3.74903 64 6.76602 64 12.8 64H35.2C41.234 64 44.251 64 46.1255 62.1255C48 60.251 48 57.234 48 51.2V12.8C41.966 12.8 38.949 12.8 37.0745 10.9255C35.2 9.05097 35.2 6.03398 35.2 0H12.8C6.76602 0 3.74903 0 1.87452 1.87452C0 3.74903 0 6.76602 0 12.8V51.2Z" fill="#DDE7FE"/>
<path d="M0 51.2C0 48.183 0 46.6745 0.937258 45.7373C1.87452 44.8 3.38301 44.8 6.4 44.8H41.6C44.617 44.8 46.1255 44.8 47.0627 45.7373C48 46.6745 48 48.183 48 51.2C48 57.234 48 60.251 46.1255 62.1255C44.251 64 41.234 64 35.2 64H12.8C6.76602 64 3.74903 64 1.87452 62.1255C0 60.251 0 57.234 0 51.2Z" fill="#8692A4"/>
<path d="M19.785 55.8078C19.4243 55.8078 19.1268 55.5134 19.1646 55.1546C19.182 54.9891 19.2061 54.8425 19.2369 54.7357C19.3077 54.4982 19.4105 54.3064 19.5452 54.1602C19.6799 54.0141 19.8421 53.8816 20.0316 53.7629C20.1732 53.6716 20.2999 53.5768 20.4118 53.4786C20.5237 53.3804 20.6128 53.2719 20.679 53.1532C20.7452 53.0322 20.7783 52.8974 20.7783 52.749C20.7783 52.5914 20.7406 52.4533 20.6653 52.3345C20.5899 52.2158 20.4883 52.1245 20.3604 52.0605C20.2348 51.9966 20.0955 51.9646 19.9425 51.9646C19.7941 51.9646 19.6537 51.9977 19.5212 52.0639C19.3888 52.1279 19.2803 52.2238 19.1958 52.3517C19.0415 52.581 18.8399 52.8209 18.5635 52.8209H18.3815C17.9867 52.8209 17.6509 52.4867 17.7782 52.113C17.831 51.9577 17.9017 51.8169 17.9901 51.6906C18.1979 51.3914 18.4731 51.1688 18.8156 51.0226C19.1581 50.8742 19.5361 50.8 19.9494 50.8C20.4038 50.8 20.8057 50.8754 21.1551 51.0261C21.5045 51.1745 21.7785 51.3903 21.9772 51.6735C22.1758 51.9566 22.2752 52.298 22.2752 52.6976C22.2752 52.9648 22.2306 53.2023 22.1416 53.4101C22.0548 53.6156 21.9326 53.7983 21.7751 53.9581C21.6175 54.1157 21.4314 54.2584 21.2167 54.3863C21.0363 54.4936 20.8879 54.6055 20.7715 54.722C20.6573 54.8384 20.5716 54.9732 20.5146 55.1262C20.5098 55.1395 20.5052 55.1539 20.5009 55.1693C20.4038 55.5125 20.1417 55.8078 19.785 55.8078ZM19.8089 58C19.5806 58 19.3853 57.9201 19.2232 57.7602C19.0634 57.5981 18.9846 57.404 18.9869 57.1779C18.9846 56.9541 19.0634 56.7623 19.2232 56.6025C19.3853 56.4426 19.5806 56.3627 19.8089 56.3627C20.0259 56.3627 20.2166 56.4426 20.381 56.6025C20.5454 56.7623 20.6287 56.9541 20.631 57.1779C20.6287 57.3286 20.5888 57.4668 20.5111 57.5924C20.4358 57.7157 20.3364 57.815 20.2131 57.8904C20.0898 57.9635 19.9551 58 19.8089 58Z" fill="white"/>
<path d="M25.2107 55.8078C24.85 55.8078 24.5525 55.5134 24.5903 55.1546C24.6077 54.9891 24.6318 54.8425 24.6626 54.7357C24.7334 54.4982 24.8362 54.3064 24.9709 54.1602C25.1056 54.0141 25.2677 53.8816 25.4573 53.7629C25.5989 53.6716 25.7256 53.5768 25.8375 53.4786C25.9494 53.3804 26.0384 53.2719 26.1047 53.1532C26.1709 53.0322 26.204 52.8974 26.204 52.749C26.204 52.5914 26.1663 52.4533 26.091 52.3345C26.0156 52.2158 25.914 52.1245 25.7861 52.0605C25.6605 51.9966 25.5212 51.9646 25.3682 51.9646C25.2198 51.9646 25.0794 51.9977 24.9469 52.0639C24.8145 52.1279 24.706 52.2238 24.6215 52.3517C24.4672 52.581 24.2656 52.8209 23.9892 52.8209H23.8072C23.4124 52.8209 23.0766 52.4867 23.2039 52.113C23.2567 51.9577 23.3274 51.8169 23.4158 51.6906C23.6236 51.3914 23.8988 51.1688 24.2413 51.0226C24.5838 50.8742 24.9618 50.8 25.3751 50.8C25.8295 50.8 26.2314 50.8754 26.5808 51.0261C26.9302 51.1745 27.2042 51.3903 27.4029 51.6735C27.6015 51.9566 27.7009 52.298 27.7009 52.6976C27.7009 52.9648 27.6563 53.2023 27.5673 53.4101C27.4805 53.6156 27.3583 53.7983 27.2008 53.9581C27.0432 54.1157 26.8571 54.2584 26.6424 54.3863C26.462 54.4936 26.3136 54.6055 26.1971 54.722C26.083 54.8384 25.9973 54.9732 25.9403 55.1262C25.9355 55.1395 25.9309 55.1539 25.9266 55.1693C25.8295 55.5125 25.5674 55.8078 25.2107 55.8078ZM25.2346 58C25.0063 58 24.811 57.9201 24.6489 57.7602C24.4891 57.5981 24.4103 57.404 24.4126 57.1779C24.4103 56.9541 24.4891 56.7623 24.6489 56.6025C24.811 56.4426 25.0063 56.3627 25.2346 56.3627C25.4516 56.3627 25.6422 56.4426 25.8067 56.6025C25.9711 56.7623 26.0544 56.9541 26.0567 57.1779C26.0544 57.3286 26.0145 57.4668 25.9368 57.5924C25.8615 57.7157 25.7621 57.815 25.6388 57.8904C25.5155 57.9635 25.3808 58 25.2346 58Z" fill="white"/>
<path d="M30.6364 55.8078C30.2756 55.8078 29.9782 55.5134 30.016 55.1546C30.0334 54.9891 30.0575 54.8425 30.0883 54.7357C30.1591 54.4982 30.2618 54.3064 30.3966 54.1602C30.5313 54.0141 30.6934 53.8816 30.883 53.7629C31.0246 53.6716 31.1513 53.5768 31.2632 53.4786C31.3751 53.3804 31.4641 53.2719 31.5304 53.1532C31.5966 53.0322 31.6297 52.8974 31.6297 52.749C31.6297 52.5914 31.592 52.4533 31.5167 52.3345C31.4413 52.2158 31.3397 52.1245 31.2118 52.0605C31.0862 51.9966 30.9469 51.9646 30.7939 51.9646C30.6455 51.9646 30.505 51.9977 30.3726 52.0639C30.2402 52.1279 30.1317 52.2238 30.0472 52.3517C29.8929 52.581 29.6913 52.8209 29.4149 52.8209H29.2329C28.8381 52.8209 28.5023 52.4867 28.6296 52.113C28.6824 51.9577 28.7531 51.8169 28.8415 51.6906C29.0493 51.3914 29.3245 51.1688 29.667 51.0226C30.0095 50.8742 30.3874 50.8 30.8008 50.8C31.2552 50.8 31.6571 50.8754 32.0065 51.0261C32.3559 51.1745 32.6299 51.3903 32.8285 51.6735C33.0272 51.9566 33.1266 52.298 33.1266 52.6976C33.1266 52.9648 33.082 53.2023 32.993 53.4101C32.9062 53.6156 32.784 53.7983 32.6265 53.9581C32.4689 54.1157 32.2828 54.2584 32.0681 54.3863C31.8877 54.4936 31.7393 54.6055 31.6228 54.722C31.5087 54.8384 31.423 54.9732 31.3659 55.1262C31.3612 55.1395 31.3566 55.1539 31.3523 55.1693C31.2552 55.5125 30.9931 55.8078 30.6364 55.8078ZM30.6603 58C30.432 58 30.2367 57.9201 30.0746 57.7602C29.9147 57.5981 29.836 57.404 29.8383 57.1779C29.836 56.9541 29.9147 56.7623 30.0746 56.6025C30.2367 56.4426 30.432 56.3627 30.6603 56.3627C30.8773 56.3627 31.0679 56.4426 31.2324 56.6025C31.3968 56.7623 31.4801 56.9541 31.4824 57.1779C31.4801 57.3286 31.4402 57.4668 31.3625 57.5924C31.2872 57.7157 31.1878 57.815 31.0645 57.8904C30.9412 57.9635 30.8065 58 30.6603 58Z" fill="white"/>
<path d="M16.4712 57.2012C16.4712 57.6424 16.1135 58.0001 15.6723 58.0001C15.2311 58.0001 14.8734 57.6424 14.8734 57.2012C14.8734 56.76 15.2311 56.4023 15.6723 56.4023C16.1135 56.4023 16.4712 56.76 16.4712 57.2012Z" fill="white"/>
<path d="M25.1201 35.6177C25.1201 36.2362 24.6186 36.7377 24.0001 36.7377C23.3815 36.7377 22.8801 36.2362 22.8801 35.6177C22.8801 34.9991 23.3815 34.4977 24.0001 34.4977C24.6186 34.4977 25.1201 34.9991 25.1201 35.6177Z" fill="#8692A4"/>
<path fill-rule="evenodd" clip-rule="evenodd" d="M21.9154 17.0787C22.9106 16.6664 24.0058 16.5586 25.0624 16.7687C26.119 16.9789 27.0895 17.4977 27.8513 18.2594C28.6131 19.0212 29.1318 19.9917 29.342 21.0483C29.5522 22.1049 29.4443 23.2001 29.032 24.1953C28.6198 25.1906 27.9216 26.0413 27.0259 26.6398C26.4778 27.006 25.9782 27.4039 25.6233 27.8298C25.2727 28.2507 25.1198 28.6293 25.1198 28.9865V30.7646C25.1198 31.3832 24.6183 31.8846 23.9998 31.8846C23.3812 31.8846 22.8798 31.3832 22.8798 30.7646V28.9865C22.8798 27.9361 23.3436 27.0668 23.9023 26.3961C24.4568 25.7305 25.1591 25.1931 25.7814 24.7773C26.3088 24.425 26.7198 23.9241 26.9625 23.3381C27.2053 22.7522 27.2688 22.1074 27.145 21.4853C27.0213 20.8632 26.7159 20.2918 26.2674 19.8433C25.8189 19.3948 25.2475 19.0894 24.6254 18.9657C24.0033 18.8419 23.3585 18.9055 22.7726 19.1482C22.1866 19.3909 21.6857 19.8019 21.3334 20.3293C20.981 20.8567 20.7929 21.4767 20.7929 22.1109C20.7929 22.7295 20.2915 23.2309 19.6729 23.2309C19.0544 23.2309 18.5529 22.7295 18.5529 22.1109C18.5529 21.0336 18.8724 19.9805 19.4709 19.0848C20.0694 18.1891 20.9201 17.4909 21.9154 17.0787Z" fill="#8692A4"/>
<path fill-rule="evenodd" clip-rule="evenodd" d="M34.5422 23.7574C35.2804 23.7615 36.0009 23.9845 36.6124 24.3981C37.2239 24.8118 37.699 25.3974 37.9777 26.0811C38.2564 26.7647 38.326 27.5156 38.1779 28.2389C38.0298 28.9621 37.6706 29.6252 37.1456 30.1443C36.6206 30.6634 35.9535 31.0151 35.2287 31.155C34.8552 31.2271 34.5317 31.3216 34.2893 31.4472C34.0528 31.5697 33.9734 31.6788 33.943 31.7511L33.5266 32.7407C33.2866 33.3108 32.6299 33.5785 32.0598 33.3386C31.4897 33.0987 31.222 32.442 31.4619 31.8718L31.8784 30.8822C32.1777 30.1711 32.7339 29.7301 33.2592 29.4581C33.7785 29.1891 34.343 29.0447 34.8041 28.9556C35.0939 28.8997 35.3607 28.759 35.5706 28.5515C35.7806 28.3439 35.9242 28.0787 35.9835 27.7895C36.0427 27.5003 36.0148 27.2 35.9034 26.9266C35.792 26.6532 35.602 26.419 35.3574 26.2536C35.1129 26.0882 34.8248 25.999 34.5296 25.9973C34.2343 25.9957 33.9452 26.0816 33.6988 26.2442C33.4525 26.4069 33.2598 26.6389 33.1453 26.911C32.9054 27.4811 32.2487 27.7488 31.6786 27.5089C31.1084 27.269 30.8407 26.6123 31.0807 26.0421C31.367 25.3617 31.8488 24.7814 32.4649 24.3747C33.081 23.9681 33.8039 23.7532 34.5422 23.7574Z" fill="#8692A4"/>
<path d="M32.5583 35.9928C32.3184 36.5629 31.6617 36.8306 31.0916 36.5907C30.5214 36.3507 30.2538 35.694 30.4937 35.1239C30.7336 34.5538 31.3903 34.2861 31.9605 34.5261C32.5306 34.766 32.7983 35.4227 32.5583 35.9928Z" fill="#8692A4"/>
<path fill-rule="evenodd" clip-rule="evenodd" d="M10.8247 25.0715C11.3438 24.5466 12.0069 24.1874 12.7301 24.0393C13.4534 23.8912 14.2043 23.961 14.8879 24.2397C15.5716 24.5184 16.1572 24.9935 16.5708 25.6051C16.9844 26.2166 17.2073 26.9371 17.2114 27.6753C17.2155 28.4135 17.0007 29.1364 16.5939 29.7526C16.3844 30.07 16.2258 30.3674 16.1461 30.6284C16.0683 30.8832 16.0909 31.0162 16.1213 31.0885L16.5377 32.0781C16.7776 32.6483 16.5099 33.305 15.9398 33.5449C15.3696 33.7848 14.713 33.517 14.4731 32.9469L14.0566 31.9572C13.7574 31.2461 13.831 30.5401 14.0037 29.9744C14.1745 29.415 14.4658 28.9104 14.7245 28.5185C14.8872 28.2721 14.9731 27.983 14.9715 27.6878C14.9698 27.3926 14.8807 27.1045 14.7153 26.8599C14.5499 26.6154 14.3157 26.4254 14.0423 26.3139C13.7689 26.2025 13.4686 26.1746 13.1794 26.2338C12.8902 26.293 12.625 26.4366 12.4174 26.6466C12.2098 26.8565 12.0692 27.1232 12.0132 27.4131C11.9572 27.703 11.9884 28.0029 12.1029 28.2751C12.3428 28.8452 12.0751 29.5019 11.505 29.7418C10.9348 29.9817 10.2782 29.714 10.0383 29.1438C9.75194 28.4634 9.67383 27.7133 9.81381 26.9884C9.95379 26.2635 10.3056 25.5964 10.8247 25.0715Z" fill="#8692A4"/>
<path d="M18.1861 35.044C18.426 35.6142 18.1582 36.2708 17.5881 36.5107C17.018 36.7506 16.3613 36.4829 16.1214 35.9128C15.8815 35.3427 16.1492 34.686 16.7193 34.4461C17.2895 34.2062 17.9462 34.4739 18.1861 35.044Z" fill="#8692A4"/>
</svg>
