<svg width="64" height="64" viewBox="0 0 64 64" fill="none" xmlns="http://www.w3.org/2000/svg">
<rect y="64" width="64" height="64" rx="18" transform="rotate(-90 0 64)" fill="url(#paint0_radial_2122_16556)"/>
<g clip-path="url(#clip0_2122_16556)">
<path d="M48 38C46.1144 39.8856 45.1716 40.8284 44 40.8284C42.8285 40.8284 41.8856 39.8856 40 38L38 35.9999C36.1144 34.1143 35.1716 33.1715 35.1716 31.9999C35.1716 30.8284 36.1144 29.8855 38 27.9999L40 25.9999C41.8856 24.1143 42.8285 23.1715 44 23.1715C45.1716 23.1715 46.1144 24.1143 48 25.9999L50.0001 27.9999C51.8857 29.8855 52.8285 30.8284 52.8285 31.9999C52.8285 33.1715 51.8857 34.1143 50.0001 35.9999L48 38Z" fill="white"/>
<path d="M36 50C34.1144 51.8856 33.1716 52.8284 32 52.8284C30.8284 52.8284 29.8856 51.8856 28 50L26 48C24.1144 46.1144 23.1715 45.1715 23.1715 44C23.1715 42.8284 24.1144 41.8856 26 40L28 38C29.8856 36.1143 30.8284 35.1715 32 35.1715C33.1716 35.1715 34.1144 36.1143 36 38L38 40C39.8856 41.8856 40.8285 42.8284 40.8285 44C40.8285 45.1715 39.8856 46.1144 38 48L36 50Z" fill="white"/>
<path d="M36 25.9999C34.1144 27.8855 33.1716 28.8284 32 28.8284C30.8284 28.8284 29.8856 27.8855 28 25.9999L26 23.9999C24.1144 22.1143 23.1715 21.1715 23.1715 19.9999C23.1715 18.8283 24.1144 17.8855 26 15.9999L28 13.9999C29.8856 12.1143 30.8284 11.1714 32 11.1714C33.1716 11.1714 34.1144 12.1143 36 13.9999L38 15.9999C39.8856 17.8855 40.8284 18.8283 40.8285 19.9999C40.8284 21.1715 39.8856 22.1143 38 23.9999L36 25.9999Z" fill="white"/>
<path d="M24 38C22.1144 39.8856 21.1715 40.8284 20 40.8284C18.8284 40.8284 17.8856 39.8856 16 38L13.9999 35.9999C12.1143 34.1143 11.1715 33.1715 11.1715 31.9999C11.1715 30.8284 12.1143 29.8855 13.9999 27.9999L15.9999 25.9999C17.8856 24.1143 18.8284 23.1715 20 23.1715C21.1715 23.1715 22.1144 24.1143 24 25.9999L26 27.9999C27.8856 29.8855 28.8284 30.8284 28.8284 31.9999C28.8284 33.1715 27.8856 34.1143 26 35.9999L24 38Z" fill="white"/>
</g>
<defs>
<radialGradient id="paint0_radial_2122_16556" cx="0" cy="0" r="1" gradientUnits="userSpaceOnUse" gradientTransform="translate(0 64) rotate(44.9573) scale(90.4326 114.281)">
<stop stop-color="#9891FC"/>
<stop offset="0.5" stop-color="#5686F9"/>
<stop offset="1" stop-color="#73A0FB"/>
</radialGradient>
<clipPath id="clip0_2122_16556">
<rect width="44" height="44" fill="white" transform="translate(10 54) rotate(-90)"/>
</clipPath>
</defs>
</svg>
