<svg width="188" height="64" viewBox="0 0 188 64" fill="none" xmlns="http://www.w3.org/2000/svg">
<rect y="64" width="64" height="188" rx="32" transform="rotate(-90 0 64)" fill="url(#paint0_radial_2121_15088)"/>
<path d="M102.182 50C99.0963 50 97.5535 50 96.5949 49.0414C95.6364 48.0829 95.6364 46.5401 95.6364 43.4545L95.6364 40.1818C95.6364 37.0963 95.6364 35.5535 96.5949 34.5949C97.5535 33.6364 99.0963 33.6364 102.182 33.6364L105.455 33.6364C108.54 33.6364 110.083 33.6364 111.041 34.5949C112 35.5535 112 37.0963 112 40.1818L112 43.4545C112 46.5401 112 48.0829 111.041 49.0414C110.083 50 108.54 50 105.455 50L102.182 50Z" fill="white"/>
<path d="M82.5455 50C79.4599 50 77.9171 50 76.9586 49.0414C76 48.0829 76 46.5401 76 43.4545L76 40.1818C76 37.0963 76 35.5535 76.9586 34.5949C77.9171 33.6364 79.4599 33.6364 82.5455 33.6364L85.8182 33.6364C88.9037 33.6364 90.4465 33.6364 91.4051 34.5949C92.3636 35.5535 92.3636 37.0963 92.3636 40.1818L92.3636 43.4545C92.3636 46.5401 92.3636 48.0829 91.4051 49.0414C90.4465 50 88.9037 50 85.8182 50L82.5455 50Z" fill="white"/>
<path d="M102.182 30.3636C99.0963 30.3636 97.5535 30.3636 96.5949 29.4051C95.6364 28.4465 95.6364 26.9037 95.6364 23.8182L95.6364 20.5455C95.6364 17.4599 95.6364 15.9171 96.5949 14.9586C97.5535 14 99.0963 14 102.182 14L105.455 14C108.54 14 110.083 14 111.041 14.9586C112 15.9171 112 17.4599 112 20.5455L112 23.8182C112 26.9037 112 28.4465 111.041 29.4051C110.083 30.3636 108.54 30.3636 105.455 30.3636L102.182 30.3636Z" fill="white"/>
<path d="M82.5455 30.3636C79.4599 30.3636 77.9171 30.3636 76.9586 29.4051C76 28.4465 76 26.9037 76 23.8182L76 20.5455C76 17.4599 76 15.9171 76.9586 14.9586C77.9171 14 79.4599 14 82.5455 14L85.8182 14C88.9037 14 90.4465 14 91.4051 14.9586C92.3636 15.9171 92.3636 17.4599 92.3636 20.5455L92.3636 23.8182C92.3636 26.9037 92.3636 28.4465 91.4051 29.4051C90.4465 30.3636 88.9037 30.3636 85.8182 30.3636L82.5455 30.3636Z" fill="white"/>
<path fill-rule="evenodd" clip-rule="evenodd" d="M161.254 30.1544C162.249 31.1737 162.249 32.8263 161.254 33.8456L150.146 45.2355C149.152 46.2548 147.54 46.2548 146.546 45.2355C145.552 44.2163 145.552 42.5637 146.546 41.5444L153.309 34.61L136.545 34.61C135.14 34.61 134 33.4415 134 32C134 30.5585 135.14 29.39 136.545 29.39L153.309 29.39L146.546 22.4556C145.552 21.4363 145.552 19.7837 146.546 18.7645C147.54 17.7452 149.152 17.7452 150.146 18.7645L161.254 30.1544Z" fill="white"/>
<path fill-rule="evenodd" clip-rule="evenodd" d="M26.7455 33.8456C25.7515 32.8263 25.7515 31.1737 26.7455 30.1544L37.8538 18.7645C38.8479 17.7452 40.4596 17.7452 41.4536 18.7645C42.4477 19.7837 42.4477 21.4363 41.4536 22.4556L34.6907 29.39L51.4545 29.39C52.8604 29.39 54 30.5585 54 32C54 33.4415 52.8604 34.61 51.4545 34.61L34.6907 34.61L41.4536 41.5444C42.4477 42.5637 42.4477 44.2163 41.4536 45.2355C40.4596 46.2548 38.8479 46.2548 37.8538 45.2355L26.7455 33.8456Z" fill="white"/>
<defs>
<radialGradient id="paint0_radial_2121_15088" cx="0" cy="0" r="1" gradientUnits="userSpaceOnUse" gradientTransform="translate(0 64) rotate(71.1741) scale(198.309 153.086)">
<stop stop-color="#9891FC"/>
<stop offset="0.5" stop-color="#5686F9"/>
<stop offset="1" stop-color="#73A0FB"/>
</radialGradient>
</defs>
</svg>
